<svg width="36" height="36" viewBox="0 0 36 36" fill="none" xmlns="http://www.w3.org/2000/svg">
<path d="M13.4531 8.30103C13.2224 8.30103 13.0354 8.48804 13.0354 8.71877V20.5313C13.0354 20.762 13.2224 20.949 13.4531 20.949C13.6838 20.949 13.8709 20.762 13.8709 20.5313V8.71877C13.8709 8.48804 13.6838 8.30103 13.4531 8.30103Z" fill="black"/>
<path d="M23.1562 4.5H12.1875C11.2555 4.5 10.5 5.25343 10.5 6.18286V31.4255C10.5 31.4761 10.5221 31.5 10.5637 31.5C11.2887 31.5 17.9535 24.2734 17.9535 24.2734C17.9535 24.2734 24.1154 31.5 24.7849 31.5C24.8233 31.5 24.8438 31.476 24.8438 31.4255V6.18286C24.8438 5.25343 24.0883 4.5 23.1562 4.5ZM24.0012 29.7488C22.6999 28.4261 20.5283 25.9944 18.5946 23.7267L17.9782 23.0038L17.3341 23.7021C15.1674 26.0514 12.7323 28.5683 11.3426 29.8581V6.18286C11.3426 5.71951 11.7216 5.34257 12.1875 5.34257H23.1562C23.6221 5.34257 24.0012 5.71951 24.0012 6.18286V29.7488Z" fill="black"/>
</svg>
