<svg width="24" height="24" viewBox="0 0 24 24" fill="none" xmlns="http://www.w3.org/2000/svg">
<path d="M19.3636 12.5395V11.3636C19.3636 7.30327 16.0603 4 12 4C7.93969 4 4.63636 7.30327 4.63636 11.3636V12.5395C3.64342 13.2866 3 14.4745 3 15.81C3 18.0657 4.83513 19.9009 7.09091 19.9009C7.54276 19.9009 7.90909 19.5345 7.90909 19.0827V12.5372C7.90909 12.0854 7.54276 11.7191 7.09091 11.7191C6.81076 11.7191 6.53716 11.7475 6.27273 11.8014V11.3637C6.27273 8.20567 8.84198 5.63642 12 5.63642C15.158 5.63642 17.7273 8.20567 17.7273 11.3637V11.8014C17.4628 11.7475 17.1892 11.7191 16.9091 11.7191C16.4572 11.7191 16.0909 12.0854 16.0909 12.5372V19.0827C16.0909 19.5345 16.4572 19.9009 16.9091 19.9009C19.1648 19.9009 21 18.0657 21 15.81C21 14.4745 20.3566 13.2866 19.3636 12.5395Z" fill="black"/>
</svg>
