<svg width="36" height="36" viewBox="0 0 36 36" fill="none" xmlns="http://www.w3.org/2000/svg">
<path d="M23.2042 16.9393C22.6183 16.3536 21.6687 16.3536 21.0829 16.9393C20.497 17.5251 20.497 18.4749 21.0829 19.0606C21.6687 19.6464 22.6183 19.6464 23.2042 19.0606C23.79 18.4749 23.79 17.5251 23.2042 16.9393Z" fill="black"/>
<path d="M24.2649 13.7573C24.8506 13.1715 25.8004 13.1715 26.3862 13.7573C26.9719 14.3431 26.9719 15.2928 26.3862 15.8787C25.8004 16.4644 24.8506 16.4644 24.2649 15.8787C23.6791 15.2928 23.6791 14.3431 24.2649 13.7573Z" fill="black"/>
<path d="M29.5682 16.9393C28.9824 16.3536 28.0328 16.3536 27.4469 16.9393C26.8611 17.5251 26.8611 18.4749 27.4469 19.0606C28.0328 19.6464 28.9824 19.6464 29.5682 19.0606C30.1541 18.4749 30.1541 17.5251 29.5682 16.9393Z" fill="black"/>
<path d="M24.2649 20.1213C24.8506 19.5356 25.8004 19.5356 26.3862 20.1213C26.9719 20.7072 26.9719 21.6569 26.3862 22.2426C25.8004 22.8285 24.8506 22.8285 24.2649 22.2426C23.6791 21.6569 23.6791 20.7072 24.2649 20.1213Z" fill="black"/>
<path d="M9 19.5H6V16.5H9V13.5H12V16.5H15V19.5H12V22.5H9V19.5Z" fill="black"/>
<path fill-rule="evenodd" clip-rule="evenodd" d="M10.5 7.5C4.70102 7.5 0 12.201 0 18C0 23.799 4.70102 28.5 10.5 28.5H25.5C31.299 28.5 36 23.799 36 18C36 12.201 31.299 7.5 25.5 7.5H10.5ZM25.5 10.5H10.5C6.35787 10.5 3 13.8579 3 18C3 22.1421 6.35787 25.5 10.5 25.5H25.5C29.6421 25.5 33 22.1421 33 18C33 13.8579 29.6421 10.5 25.5 10.5Z" fill="black"/>
</svg>
