<svg width="12" height="12" viewBox="0 0 12 12" fill="none" xmlns="http://www.w3.org/2000/svg">
<g clip-path="url(#clip0_110_785)">
<path d="M2.74317 5.14736C2.80409 5.08667 2.87016 5.03544 2.93968 4.99089L7.59048 0.340301C8.0442 -0.113199 8.7803 -0.113414 9.23423 0.340516C9.68816 0.794232 9.68816 1.53012 9.23423 1.98427L5.22892 5.98958L9.2549 10.0158C9.70883 10.4695 9.70883 11.2052 9.2549 11.6595C9.02782 11.8868 8.73015 12 8.43313 12C8.1361 12 7.83822 11.8868 7.61136 11.6595L2.93968 6.98741C2.87016 6.94285 2.80366 6.89163 2.74317 6.83093C2.51115 6.59891 2.39923 6.29327 2.40482 5.98915C2.39923 5.68502 2.51115 5.3796 2.74317 5.14736Z" fill="black"/>
</g>
<defs>
<clipPath id="clip0_110_785">
<rect width="12" height="12" fill="white"/>
</clipPath>
</defs>
</svg>
