<svg width="36" height="36" viewBox="0 0 36 36" fill="none" xmlns="http://www.w3.org/2000/svg">
<g clip-path="url(#clip0_28_1563)">
<path d="M32.8352 8.1106C31.0873 8.1106 29.6703 9.52757 29.6703 11.2754C29.6703 11.7139 29.7596 12.1316 29.9208 12.5113L23.2912 19.141C22.9115 18.9797 22.4938 18.8904 22.0553 18.8904C21.6167 18.8904 21.199 18.9797 20.8193 19.141L16.8591 15.1808C17.0203 14.8011 17.1096 14.3834 17.1096 13.9448C17.1096 12.197 15.6926 10.78 13.9447 10.78C12.1969 10.78 10.7799 12.197 10.7799 13.9448C10.7799 14.3833 10.8692 14.801 11.0304 15.1807L4.4007 21.8103C4.021 21.649 3.60332 21.5597 3.16476 21.5597C1.4169 21.5597 -8.01086e-05 22.9767 -8.01086e-05 24.7246C-8.01086e-05 26.4724 1.4169 27.8894 3.16476 27.8894C4.91261 27.8894 6.32959 26.4724 6.32959 24.7246C6.32959 24.2861 6.24034 23.8684 6.07909 23.4887L12.7088 16.8591C13.0885 17.0203 13.5062 17.1096 13.9447 17.1096C14.3832 17.1096 14.8009 17.0203 15.1806 16.8591L19.1409 20.8194C18.9797 21.1991 18.8904 21.6168 18.8904 22.0553C18.8904 23.8031 20.3074 25.2201 22.0553 25.2201C23.8031 25.2201 25.2201 23.8031 25.2201 22.0553C25.2201 21.6168 25.1308 21.1991 24.9696 20.8194L31.5992 14.1897C31.9789 14.3509 32.3966 14.4402 32.8352 14.4402C34.583 14.4402 36 13.0232 36 11.2754C36 9.52749 34.583 8.1106 32.8352 8.1106Z" fill="black"/>
</g>
<defs>
<clipPath id="clip0_28_1563">
<rect width="36" height="36" fill="white"/>
</clipPath>
</defs>
</svg>
