<svg width="12" height="12" viewBox="0 0 12 12" fill="none" xmlns="http://www.w3.org/2000/svg">
<path d="M11.6615 6.85276C11.6005 6.91346 11.5345 6.96468 11.4649 7.00924L6.81414 11.6598C6.36043 12.1133 5.62432 12.1135 5.17039 11.6596C4.71646 11.2059 4.71646 10.47 5.17039 10.0159L9.1757 6.01055L5.14973 1.98436C4.6958 1.53064 4.6958 0.79497 5.14973 0.340609C5.3768 0.11332 5.67447 0.000106812 5.9715 0.000106812C6.26852 0.000106812 6.56641 0.11332 6.79326 0.340609L11.4649 5.01272C11.5345 5.05727 11.601 5.1085 11.6615 5.16919C11.8935 5.40122 12.0054 5.70685 11.9998 6.01098C12.0054 6.3151 11.8935 6.62052 11.6615 6.85276Z" fill="black"/>
<path d="M7.66145 6.85276C7.60054 6.91346 7.53446 6.96468 7.46494 7.00924L2.81414 11.6598C2.36043 12.1133 1.62432 12.1135 1.17039 11.6596C0.716461 11.2059 0.716461 10.47 1.17039 10.0159L5.1757 6.01055L1.14973 1.98436C0.695798 1.53064 0.695798 0.79497 1.14973 0.340609C1.3768 0.11332 1.67447 0.000106812 1.9715 0.000106812C2.26852 0.000106812 2.56641 0.11332 2.79326 0.340609L7.46494 5.01272C7.53446 5.05727 7.60097 5.1085 7.66145 5.16919C7.89347 5.40122 8.0054 5.70685 7.9998 6.01098C8.0054 6.3151 7.89347 6.62052 7.66145 6.85276Z" fill="black"/>
</svg>
