<svg width="353" height="350" viewBox="0 0 353 350" fill="none" xmlns="http://www.w3.org/2000/svg">
<path d="M319.535 244.745C319.663 244.419 319.663 244.066 319.606 243.736C321.512 239.768 323.226 235.694 324.805 231.553C325.143 231.313 325.409 230.991 325.525 230.578C325.604 230.312 325.548 230.045 325.503 229.783C326.954 225.826 328.218 221.782 329.359 217.686C329.629 217.428 329.824 217.086 329.899 216.7C329.951 216.475 329.865 216.254 329.824 216.032C330.93 211.895 331.853 207.679 332.625 203.415C332.768 203.186 332.922 202.968 332.956 202.694C332.978 202.499 332.88 202.334 332.847 202.147C333.623 197.672 334.208 193.137 334.602 188.55C334.643 188.411 334.745 188.299 334.752 188.149C334.756 188.021 334.681 187.912 334.655 187.785C334.996 183.528 335.225 179.241 335.225 174.893C335.225 174.203 335.18 173.528 335.172 172.849C335.172 172.789 335.213 172.755 335.206 172.699C335.206 172.658 335.165 172.624 335.161 172.59C333.919 85.6314 262.842 15.2661 175.601 15.2661C89.4675 15.2661 19.0946 83.846 16.1165 169.271C16.0902 169.376 16.004 169.451 15.9927 169.556C15.9777 169.721 16.0677 169.852 16.0977 170.006C16.0415 171.63 15.9702 173.254 15.9702 174.893C15.9702 178.258 16.1127 181.589 16.319 184.897C16.3153 184.968 16.2665 185.013 16.2665 185.084C16.2665 185.189 16.3378 185.264 16.3565 185.358C16.6829 190.407 17.2267 195.399 18.0182 200.313C18.0069 200.451 17.9281 200.575 17.9431 200.722C17.9694 200.917 18.1044 201.059 18.1794 201.224C19.0009 206.126 20.0211 210.957 21.2776 215.699C21.2438 215.935 21.1763 216.167 21.2439 216.415C21.3151 216.692 21.4989 216.899 21.6789 217.109C23.0105 221.959 24.5596 226.718 26.3224 231.373C26.2399 231.733 26.2587 232.112 26.4012 232.468C26.5438 232.825 26.7876 233.114 27.0914 233.32C28.8468 237.765 30.7897 242.112 32.9239 246.35C32.8489 246.752 32.8714 247.175 33.0739 247.55C33.2727 247.929 33.5878 248.184 33.9479 248.353C36.2209 252.727 38.6964 256.976 41.3557 261.098C41.2995 261.526 41.3332 261.961 41.5695 262.344C41.8133 262.726 42.2034 262.944 42.6235 263.075C45.2828 267.073 48.1259 270.941 51.1266 274.673C51.0928 275.119 51.1604 275.562 51.4417 275.94C51.738 276.334 52.1844 276.518 52.6532 276.593C55.4326 279.946 58.3657 283.161 61.4039 286.278C61.3926 286.728 61.4864 287.174 61.7902 287.534C62.1503 287.947 62.6604 288.104 63.1855 288.108C66.535 291.428 70.0307 294.608 73.6578 297.624C73.6915 298.096 73.8191 298.55 74.1829 298.88C74.5955 299.27 75.1656 299.353 75.7132 299.274C79.389 302.23 83.1773 305.039 87.1119 307.665C87.1795 308.164 87.382 308.64 87.8059 308.936C88.2785 309.274 88.8561 309.293 89.3962 309.135C93.282 311.637 97.2654 313.981 101.369 316.145C101.474 316.637 101.706 317.091 102.145 317.364C102.674 317.691 103.312 317.676 103.863 317.424C108.863 319.952 114.013 322.233 119.298 324.236C119.467 324.754 119.797 325.207 120.322 325.41C120.858 325.624 121.428 325.496 121.92 325.207C126.717 326.921 131.612 328.422 136.608 329.678C136.848 330.192 137.242 330.612 137.816 330.744C138.371 330.871 138.911 330.665 139.35 330.316C142.815 331.122 146.315 331.835 149.859 332.413C149.582 337.941 149.762 340.533 149.942 341.711C97.6705 341.19 69.7269 339.28 69.7269 339.28C69.7269 339.28 66.82 339.34 66.82 341.673C66.82 344.235 69.7269 344.644 69.7269 344.644C100.705 348.838 176.494 350 176.494 350C176.494 350 252.275 348.838 283.253 344.644C283.253 344.644 286.16 344.235 286.16 341.673C286.16 339.34 283.253 339.28 283.253 339.28C283.253 339.28 254.695 341.238 201.291 341.733C201.474 340.556 201.654 337.975 201.373 332.416C202.045 332.308 202.705 332.176 203.372 332.064C203.759 332.401 204.235 332.634 204.764 332.6C205.394 332.533 205.908 332.12 206.193 331.557C211.065 330.609 215.855 329.427 220.562 328.047C220.99 328.347 221.496 328.519 222.029 328.399C222.614 328.261 223.023 327.81 223.244 327.267C227.535 325.924 231.732 324.375 235.847 322.687C236.301 322.938 236.803 323.066 237.313 322.889C237.891 322.698 238.266 322.199 238.435 321.625C243.075 319.63 247.598 317.432 252.002 315.024C252.489 315.204 253.007 315.256 253.476 315.016C254.016 314.75 254.308 314.217 254.398 313.644C258.577 311.262 262.635 308.708 266.566 305.969C267.091 306.104 267.654 306.086 268.115 305.744C268.554 305.426 268.738 304.915 268.783 304.394C272.114 301.994 275.354 299.469 278.486 296.825C279.004 296.889 279.529 296.817 279.938 296.461C280.339 296.101 280.493 295.598 280.504 295.077C283.902 292.103 287.177 288.989 290.316 285.745C290.83 285.741 291.329 285.606 291.693 285.212C292.034 284.837 292.128 284.353 292.102 283.87C295.192 280.576 298.133 277.137 300.931 273.589C301.426 273.517 301.895 273.322 302.199 272.895C302.465 272.516 302.518 272.073 302.476 271.627C305.515 267.659 308.361 263.536 311.021 259.283C311.49 259.125 311.921 258.852 312.135 258.39C312.304 258.03 312.349 257.644 312.285 257.28C314.565 253.514 316.666 249.636 318.631 245.686C319.021 245.476 319.366 245.18 319.535 244.745ZM322.543 226.921L313.151 220.177L325.225 218.594C324.4 221.4 323.522 224.179 322.543 226.921ZM316.122 170.711L327.115 173.284L316.268 177.553C316.268 177.388 316.279 177.238 316.279 177.073C316.283 174.942 316.219 172.823 316.122 170.711ZM327.356 187.736L315.574 191.209C315.841 188.505 316.017 185.771 316.129 183.021L327.356 187.736ZM315.751 165.295C315.544 162.778 315.27 160.28 314.929 157.797L326.572 159.342L315.751 165.295ZM325.521 201.779L313.598 204.375C314.115 201.783 314.535 199.161 314.907 196.521L325.521 201.779ZM314.081 152.456C313.654 150.029 313.162 147.621 312.604 145.236L324.34 145.652L314.081 152.456ZM322.367 215.211L310.544 216.764C311.25 214.374 311.891 211.955 312.465 209.517L322.367 215.211ZM318.425 228.545L306.175 229.336C307.176 226.846 308.11 224.318 308.965 221.752L318.425 228.545ZM326.684 213.392L316.523 207.552L328.575 204.93C328.012 207.777 327.397 210.601 326.684 213.392ZM329.524 199.608L318.612 194.199L330.709 190.632C330.409 193.651 330 196.641 329.524 199.608ZM331.118 185.279L319.363 180.343L331.485 175.569C331.474 178.835 331.331 182.069 331.118 185.279ZM331.388 170.456L319.269 167.617L330.87 161.222C331.136 164.275 331.301 167.354 331.388 170.456ZM330.326 156.076L317.847 154.429L328.961 147.062C329.505 150.037 329.959 153.045 330.326 156.076ZM327.989 142.059L315.012 141.59L325.638 132.652C326.515 135.75 327.307 138.878 327.989 142.059ZM311.257 139.883C310.586 137.438 309.847 135.022 309.048 132.629L320.912 131.748L311.257 139.883ZM324.205 127.768L311.227 128.728L321.084 118.961C322.202 121.861 323.256 124.79 324.205 127.768ZM307.225 127.457C306.268 124.932 305.233 122.453 304.138 119.996L316.392 118.372L307.225 127.457ZM319.216 114.231L305.935 115.994L315.233 105.665C316.636 108.478 317.982 111.325 319.216 114.231ZM301.812 115.012C300.653 112.667 299.423 110.361 298.14 108.091L310.304 105.563L301.812 115.012ZM312.949 101.205L299.472 104.007L308.058 92.7993C309.768 95.5524 311.407 98.3467 312.949 101.205ZM295.331 103.302C294.093 101.302 292.807 99.3294 291.468 97.3978L302.803 93.5382L295.331 103.302ZM305.428 88.7071L292.589 93.0806L300.121 81.2092C301.966 83.651 303.733 86.1566 305.428 88.7071ZM288.28 92.923C286.742 90.8713 285.129 88.8684 283.482 86.8955L295.087 82.1919L288.28 92.923ZM290.781 69.938C292.968 72.3385 295.061 74.8216 297.098 77.3571L284.045 82.6495L290.781 69.938ZM279.818 82.6683C278.04 80.7141 276.198 78.8125 274.311 76.9558L285.827 71.3221L279.818 82.6683ZM287.406 66.401L274.304 72.8074L279.953 59.1807C282.526 61.5024 284.998 63.9217 287.406 66.401ZM270.186 73.0137C268.333 71.3296 266.431 69.698 264.484 68.1151L275.043 61.2999L270.186 73.0137ZM276.329 56.0375L264.139 63.903L268.464 49.7511C271.161 51.7541 273.771 53.8658 276.329 56.0375ZM255.993 41.3718C258.944 43.1497 261.803 45.0439 264.616 47.0055L253.386 56.3338L255.993 41.3718ZM263.689 52.628L260.028 64.6081C258.13 63.1828 256.206 61.7987 254.245 60.4672L263.689 52.628ZM243.469 34.5603C246.319 35.9519 249.106 37.4372 251.855 38.99L241.567 49.1435L243.469 34.5603ZM251.687 44.395L249.417 57.3765C247.171 55.9887 244.901 54.6422 242.58 53.3819L251.687 44.395ZM230.239 28.8966C233.281 30.0331 236.263 31.2821 239.204 32.6061L229.41 43.6485L230.239 28.8966ZM239.238 38.1761L237.587 50.8164C235.359 49.7174 233.105 48.6634 230.806 47.6844L239.238 38.1761ZM225.821 27.3362L216.5 39.3351L216.08 24.3543C219.373 25.2395 222.618 26.2485 225.821 27.3362ZM226.282 32.8124L225.562 45.584C223.177 44.6725 220.78 43.8211 218.342 43.0409L226.282 32.8124ZM212.836 41.4243C210.57 40.8054 208.29 40.2353 205.983 39.7289L212.483 28.9866L212.836 41.4243ZM211.609 23.2366L203.725 36.2669L201.392 21.1661C204.843 21.74 208.245 22.4339 211.609 23.2366ZM200.312 38.6037C197.701 38.1423 195.075 37.7448 192.412 37.4297L198.32 25.6746L200.312 38.6037ZM196.763 20.4647L189.884 34.1665L186.524 19.4145C189.963 19.6546 193.38 20.0071 196.763 20.4647ZM186.674 36.8671C184.311 36.6795 181.925 36.5557 179.528 36.4845L183.891 24.6394L186.674 36.8671ZM175.609 18.9944C177.732 18.9944 179.84 19.0694 181.94 19.1557L176.696 33.4051L171.817 19.0919C173.081 19.0582 174.333 18.9944 175.609 18.9944ZM173.782 36.432C171.333 36.4657 168.895 36.5558 166.472 36.717L169.667 24.3506L173.782 36.432ZM167.151 19.2307L163.396 33.7164L157.575 20.0672C160.737 19.6996 163.929 19.3995 167.151 19.2307ZM155.849 25.5208L160.819 37.1709C158.332 37.4297 155.872 37.7673 153.43 38.1573L155.849 25.5208ZM152.984 20.6485L150.111 35.6781L142.962 22.4527C146.27 21.7475 149.608 21.1436 152.984 20.6485ZM141.938 28.3977L147.759 39.1663C145.546 39.6127 143.348 40.1153 141.176 40.6629L141.938 28.3977ZM138.513 23.4842L137.579 38.3974L128.994 26.121C132.118 25.1345 135.299 24.2718 138.513 23.4842ZM135.685 42.1895C133.423 42.8609 131.184 43.5885 128.967 44.3687L128.51 31.931L135.685 42.1895ZM124.62 27.595L125.16 42.4333L115.359 31.1133C118.394 29.838 121.488 28.6865 124.62 27.595ZM123.649 46.3754C121.297 47.3131 118.979 48.3071 116.691 49.361L115.239 36.6683L123.649 46.3754ZM111.08 33.03L112.756 47.7482L102.25 37.3772C105.138 35.8318 108.087 34.399 111.08 33.03ZM111.605 51.8516C109.122 53.1269 106.68 54.4584 104.291 55.8762L102.269 42.6358L111.605 51.8516ZM98.0606 39.7327L100.521 55.8837L86.1142 47.3544C89.9738 44.6425 93.9572 42.0995 98.0606 39.7327ZM98.8745 59.2444C95.9451 61.1536 93.0945 63.1715 90.3189 65.287L86.3093 51.8028L98.8745 59.2444ZM81.9808 50.3288L86.4893 65.4746L71.9436 58.5843C75.1731 55.6999 78.5188 52.9356 81.9808 50.3288ZM85.5066 69.1316C83.0461 71.187 80.6755 73.3363 78.3613 75.5568L72.8176 63.1153L85.5066 69.1316ZM68.2491 62.0125L74.4717 75.9806L59.671 70.797C62.4128 67.7475 65.2859 64.8332 68.2491 62.0125ZM74.1041 79.8064C71.6323 82.387 69.2243 85.0388 66.9513 87.8069L60.5787 75.0616L74.1041 79.8064ZM56.2502 74.7466L63.2305 88.6996L48.6361 84.6112C51.0479 81.2205 53.5797 77.9273 56.2502 74.7466ZM35.0093 180.493C35.0806 183.464 35.2344 186.408 35.4894 189.327L23.4493 184.991L35.0093 180.493ZM34.9756 174.991L23.8507 170.254L35.2719 167.606C35.1106 170.055 35.0093 172.519 34.9756 174.991ZM24.207 154.354L37.2598 151.665C36.6409 155.048 36.1196 158.465 35.7445 161.931L24.207 154.354ZM36.0071 194.27C36.3371 196.982 36.7497 199.668 37.2336 202.327L25.306 199.761L36.0071 194.27ZM38.3176 207.702C38.9252 210.402 39.6079 213.077 40.358 215.721L28.3292 214.573L38.3176 207.702ZM27.6353 137.757L40.9656 136.309C40.0054 139.474 39.1765 142.689 38.4376 145.941L27.6353 137.757ZM63.2117 92.563C61.3551 95.031 59.5922 97.5628 57.8968 100.151L50.3164 88.9472L63.2117 92.563ZM45.7142 88.8084L54.3186 101.516L39.049 99.7908C41.1232 96.0287 43.3512 92.3679 45.7142 88.8084ZM54.6674 105.304C52.7957 108.448 51.0441 111.673 49.4163 114.963L40.6056 103.714L54.6674 105.304ZM36.5397 104.562L46.1605 116.849L30.936 116.898C32.6313 112.69 34.503 108.583 36.5397 104.562ZM46.8057 120.574C45.3691 123.837 44.0488 127.157 42.8598 130.54L32.9127 120.619L46.8057 120.574ZM28.9743 121.962L39.7391 132.697L25.1147 134.28C26.2362 130.101 27.519 125.99 28.9743 121.962ZM23.8057 139.519L35.3394 148.266L21.5252 151.109C22.1253 147.19 22.9205 143.338 23.8057 139.519ZM20.8163 156.593L32.6951 164.38L19.9048 167.339C20.0736 163.716 20.3999 160.141 20.8163 156.593ZM19.7098 174.893C19.7098 174.113 19.7548 173.341 19.7623 172.568L31.8662 177.718L19.8973 182.373C19.781 179.897 19.7098 177.403 19.7098 174.893ZM21.3826 197.578C20.91 194.356 20.5537 191.101 20.2874 187.815L32.1287 192.072L21.3826 197.578ZM22.2791 202.923L34.7918 205.613L24.387 212.765C23.5694 209.525 22.8867 206.239 22.2791 202.923ZM25.8424 218.08L38.4451 219.284L29.1206 228.264C27.9016 224.922 26.8363 221.516 25.8424 218.08ZM41.9934 221.032C43.0023 224.089 44.1088 227.105 45.3166 230.068L32.7326 229.959L41.9934 221.032ZM31.2473 233.672L43.655 233.781L35.4369 243.076C33.9329 239.996 32.5488 236.857 31.2473 233.672ZM47.4846 235.071C48.6773 237.693 49.9301 240.274 51.2729 242.806L39.3753 244.25L47.4846 235.071ZM38.0513 248.166L50.1326 246.699L43.4224 257.411C41.532 254.396 39.7354 251.313 38.0513 248.166ZM53.9585 247.607C55.9277 250.982 58.0244 254.272 60.2561 257.464L46.8019 259.043L53.9585 247.607ZM46.9257 262.779L59.3521 261.323L53.0883 271.128C50.9503 268.409 48.8836 265.637 46.9257 262.779ZM63.4293 261.856C65.1022 264.065 66.8575 266.211 68.6542 268.315L57.1804 271.649L63.4293 261.856ZM62.9792 282.527C60.845 280.291 58.7708 278 56.7679 275.648L67.8628 272.426L62.9792 282.527ZM72.1012 272.231C74.3779 274.71 76.756 277.088 79.209 279.399L66.7638 283.269L72.1012 272.231ZM74.918 293.783C72.3375 291.593 69.8357 289.316 67.3977 286.968L78.9952 283.367L74.918 293.783ZM83.1548 282.973C85.3641 284.909 87.6408 286.784 89.9738 288.581L78.9052 293.821L83.1548 282.973ZM87.8059 303.64C85.004 301.72 82.2846 299.698 79.6178 297.605L90.2326 292.575L87.8059 303.64ZM101.658 312.11C98.732 310.523 95.8739 308.828 93.0532 307.061L102.907 301.03L101.658 312.11ZM91.6429 303.558L94.2348 291.724C96.8453 293.588 99.5122 295.377 102.247 297.061L91.6429 303.558ZM107.543 315.129L118.131 308.235L118.896 320.073C115.037 318.561 111.241 316.926 107.543 315.129ZM105.423 312.061L106.807 299.717C110.011 301.517 113.293 303.201 116.646 304.754L105.423 312.061ZM121.788 307.031C125.029 308.377 128.33 309.593 131.683 310.695L122.595 319.521L121.788 307.031ZM125.048 322.334L133.438 314.191L135.678 325.59C132.077 324.637 128.536 323.535 125.048 322.334ZM139.248 324.442L136.863 312.286C140.04 313.197 143.25 314.022 146.517 314.709L139.248 324.442ZM150.084 328.673C147.339 328.223 144.619 327.687 141.926 327.094L148.498 318.295L150.37 325.114C150.257 326.389 150.159 327.582 150.084 328.673ZM176.486 341.846C167.353 341.846 158.794 341.801 150.782 341.722C151.315 340.653 152.226 338.376 153.558 333.632C153.674 333.673 153.753 333.763 153.869 333.785C154.45 333.872 155.017 333.62 155.441 333.208C160.422 333.838 165.478 334.243 170.598 334.401C170.946 334.869 171.438 335.211 172.034 335.211C172.042 335.211 172.042 335.211 172.045 335.211C172.616 335.211 173.088 334.899 173.441 334.476C174.165 334.483 174.874 334.528 175.601 334.528C179.337 334.528 183.024 334.352 186.692 334.097C187.041 334.509 187.51 334.806 188.133 334.768C188.733 334.738 189.228 334.374 189.551 333.879C192.202 333.647 194.843 333.35 197.465 332.99C198.901 338.211 199.873 340.631 200.432 341.745C192.941 341.805 184.952 341.846 176.486 341.846ZM175.609 204.566C176.693 215.725 178.981 233.357 183.504 261.32C187.255 284.5 190.316 301.048 192.776 312.908C187.15 313.621 181.423 314.026 175.597 314.026C169.784 314.026 164.06 313.625 158.437 312.916C160.898 301.045 163.959 284.5 167.71 261.32C172.237 233.357 174.525 215.725 175.609 204.566ZM175.601 183.712C171.94 183.712 168.966 180.737 168.966 177.073C168.966 173.416 171.94 170.434 175.601 170.434C179.266 170.434 182.24 173.412 182.24 177.073C182.24 180.733 179.262 183.712 175.601 183.712ZM167.282 317.488C170.039 317.646 172.811 317.751 175.601 317.751C176.051 317.751 176.49 317.725 176.94 317.717L172.079 328.681L167.282 317.488ZM168.861 330.627C165.163 330.47 161.502 330.173 157.871 329.761L164.338 320.084L168.861 330.627ZM179.626 320.845L184.697 330.515C181.689 330.687 178.666 330.796 175.612 330.796C175.485 330.796 175.357 330.789 175.23 330.789L179.626 320.845ZM182.12 317.586C185.665 317.424 189.164 317.106 192.634 316.689L187.836 328.482L182.12 317.586ZM194.655 321.595C195.334 324.585 195.949 327.15 196.512 329.356C194.76 329.592 193.001 329.836 191.235 330.008L194.655 321.595ZM161.873 317.076L155.332 326.85C156.033 323.981 156.81 320.564 157.672 316.569C159.068 316.749 160.459 316.941 161.873 317.076ZM201.133 328.673C201.133 328.669 201.133 328.658 201.129 328.651L201.141 328.673C201.137 328.673 201.137 328.673 201.133 328.673ZM204.13 326.4L200.398 320.211C200.252 318.782 200.09 317.226 199.914 315.605C202.847 315.091 205.75 314.499 208.616 313.805L204.13 326.4ZM207.708 327.454L211.785 316.007L218.079 324.866C214.662 325.838 211.211 326.719 207.708 327.454ZM220.442 321.757L213.818 312.436C216.676 311.626 219.505 310.737 222.288 309.758L220.442 321.757ZM224.009 323.062L225.727 311.892L232.977 319.81C230.033 320.984 227.047 322.072 224.009 323.062ZM235.228 316.749L227.145 307.931C230.269 306.693 233.36 305.384 236.376 303.933L235.228 316.749ZM238.919 317.312L239.995 305.309L248.723 312.541C245.516 314.244 242.246 315.823 238.919 317.312ZM241.203 301.468C244.14 299.916 247.006 298.265 249.815 296.514L250.528 309.191L241.203 301.468ZM199.494 311.896C198.087 299.859 195.777 283.164 192.026 259.939C184.183 211.453 179.746 194.454 177.507 188.524C183.028 187.609 187.251 182.845 187.251 177.069C187.251 170.636 182.038 165.423 175.601 165.423C169.172 165.423 163.955 170.636 163.955 177.069C163.955 182.849 168.19 187.616 173.715 188.528C171.479 194.458 167.038 211.456 159.195 259.939C155.444 283.161 153.134 299.863 151.727 311.903C87.5658 300.565 38.6551 244.441 38.6551 177.073C38.6551 173.213 38.8539 169.398 39.169 165.618C39.169 165.595 39.2065 165.576 39.2065 165.543C39.2178 165.486 39.184 165.434 39.1878 165.378C39.6341 160.19 40.3355 155.07 41.3445 150.059C41.412 149.924 41.5245 149.819 41.5583 149.669C41.607 149.493 41.5395 149.32 41.5283 149.144C42.5147 144.422 43.7525 139.797 45.2078 135.266C45.3429 135.097 45.5079 134.955 45.5792 134.741C45.6579 134.512 45.6279 134.28 45.6204 134.047C47.1995 129.291 49.0299 124.651 51.0966 120.143C51.3217 119.97 51.5317 119.775 51.663 119.516C51.8093 119.197 51.8618 118.856 51.8318 118.515C53.9585 114.044 56.3103 109.708 58.8946 105.511C59.2321 105.361 59.5322 105.124 59.7347 104.791C59.926 104.483 60.0048 104.134 60.0011 103.785C62.274 100.207 64.7083 96.7451 67.2926 93.4069C67.649 93.3056 67.9715 93.1068 68.2191 92.8068C68.4817 92.4917 68.6017 92.1091 68.6204 91.719C71.6136 87.9757 74.7905 84.3749 78.1512 80.9654C78.5863 80.9167 79.0027 80.7666 79.3102 80.4366C79.5878 80.129 79.7153 79.7614 79.7641 79.3676C82.8398 76.3407 86.0617 73.4638 89.4149 70.7407C89.8763 70.7557 90.3264 70.6657 90.6827 70.3544C91.0128 70.073 91.1816 69.6905 91.2566 69.2891C94.9099 66.4235 98.702 63.7417 102.64 61.2549C103.113 61.3412 103.593 61.3149 104.002 61.0373C104.388 60.771 104.595 60.3659 104.707 59.9308C107.929 57.9767 111.256 56.1763 114.643 54.4847C115.097 54.6384 115.581 54.6759 116.027 54.4584C116.488 54.2296 116.751 53.8208 116.912 53.3594C120.029 51.8741 123.221 50.5163 126.466 49.2673C126.923 49.4848 127.422 49.5786 127.913 49.3873C128.393 49.196 128.694 48.7909 128.885 48.3333C131.93 47.2231 135.044 46.2516 138.187 45.3552C138.622 45.614 139.113 45.764 139.623 45.6215C140.137 45.4827 140.475 45.0926 140.707 44.6388C143.719 43.8361 146.784 43.1609 149.871 42.5721C150.264 42.8796 150.733 43.0859 151.251 43.0034C151.795 42.9246 152.189 42.5533 152.47 42.107C155.804 41.5368 159.184 41.0755 162.593 40.7454C162.976 41.1205 163.449 41.3868 163.977 41.3343C164.521 41.293 164.945 40.963 165.26 40.5391C168.568 40.2953 171.899 40.1303 175.264 40.119C175.605 40.5241 176.051 40.8354 176.614 40.8392C177.15 40.8504 177.597 40.5579 177.949 40.1715C181.254 40.2316 184.528 40.3928 187.773 40.6854C188.073 41.0942 188.467 41.4243 188.992 41.4881C189.569 41.5556 190.057 41.3043 190.447 40.9292C194.059 41.3193 197.622 41.8707 201.144 42.5383C201.411 42.9809 201.782 43.341 202.315 43.446C202.847 43.551 203.331 43.3522 203.747 43.0334C206.947 43.7048 210.086 44.515 213.203 45.4002C213.421 45.8315 213.743 46.1991 214.216 46.3491C214.737 46.5292 215.251 46.3866 215.705 46.1128C219.062 47.1443 222.351 48.3221 225.592 49.5973C225.776 50.0362 226.072 50.4263 226.534 50.6138C227.006 50.8089 227.501 50.7263 227.959 50.5313C231.147 51.8591 234.264 53.3106 237.321 54.8672C237.475 55.3136 237.745 55.7149 238.187 55.9325C238.622 56.1538 239.091 56.135 239.53 55.9962C242.745 57.7104 245.888 59.552 248.952 61.5024C249.08 61.9525 249.312 62.3651 249.744 62.6089C250.134 62.8302 250.558 62.8677 250.974 62.8002C253.757 64.6419 256.461 66.5848 259.094 68.6177C259.188 69.0453 259.387 69.4392 259.743 69.713C260.088 69.9793 260.512 70.0731 260.929 70.0581C263.667 72.2485 266.318 74.5328 268.888 76.922C268.94 77.3234 269.105 77.7097 269.42 78.006C269.724 78.2986 270.114 78.4374 270.516 78.4786C273.175 81.0329 275.729 83.696 278.175 86.4604C278.209 86.8542 278.347 87.2368 278.625 87.5406C278.891 87.8407 279.236 88.0282 279.608 88.1107C281.956 90.8563 284.202 93.6882 286.333 96.6063C286.344 96.9964 286.468 97.379 286.723 97.7016C286.918 97.9454 287.192 98.0842 287.462 98.2004C289.446 101.002 291.344 103.879 293.118 106.827C293.118 107.176 293.193 107.532 293.384 107.84C293.538 108.084 293.774 108.23 294.007 108.376C295.92 111.662 297.72 115.027 299.363 118.481C299.356 118.785 299.382 119.1 299.528 119.385C299.63 119.58 299.821 119.685 299.971 119.831C301.647 123.455 303.185 127.153 304.543 130.941C304.539 131.204 304.521 131.478 304.633 131.736C304.701 131.864 304.828 131.935 304.914 132.048C306.197 135.731 307.356 139.471 308.32 143.281C308.32 143.492 308.275 143.69 308.343 143.893C308.38 143.987 308.47 144.047 308.523 144.133C309.464 147.944 310.263 151.811 310.874 155.738C310.882 155.839 310.829 155.94 310.856 156.046C310.874 156.121 310.942 156.169 310.964 156.241C312.011 163.041 312.547 169.991 312.547 177.073C312.551 244.437 263.648 300.561 199.494 311.896ZM312.949 242.209H300.23C301.602 239.595 302.889 236.936 304.1 234.228L312.949 242.209ZM305.751 255.341L293.081 254.339C294.697 251.898 296.22 249.388 297.69 246.845L305.751 255.341ZM296.554 268.911L284.499 266.023C286.404 263.69 288.216 261.286 289.971 258.837L296.554 268.911ZM286.37 280.385L275.474 276.034C277.398 274.091 279.255 272.081 281.067 270.025L286.37 280.385ZM254.275 309.409L253.618 297.628L263.074 303.876C260.208 305.823 257.264 307.65 254.275 309.409ZM254.305 293.622C256.443 292.178 258.521 290.659 260.568 289.098L263.76 299.871L254.305 293.622ZM267.83 300.493L264.788 290.212L274.717 295.145C272.481 296.997 270.171 298.768 267.83 300.493ZM264.586 285.948C267.031 283.945 269.39 281.844 271.697 279.684L275.546 291.397L264.586 285.948ZM279.375 291.109L275.778 280.171L286.423 284.413C284.146 286.728 281.794 288.948 279.375 291.109ZM290.462 280.183L285.264 270.044L296.805 272.808C294.761 275.329 292.657 277.797 290.462 280.183ZM300.485 268.124L293.966 258.15L306.67 259.159C304.693 262.212 302.656 265.221 300.485 268.124ZM309.772 254.163L301.959 245.938H314.31C312.866 248.728 311.366 251.474 309.772 254.163ZM308.241 232.941L320.57 232.138C319.419 235.041 318.192 237.911 316.872 240.724L308.241 232.941Z" fill="#E5E5E5"/>
<path d="M176.559 12.2539C180.156 12.2539 183.081 9.50832 183.081 6.12133C183.081 2.7456 180.156 0 176.559 0C172.947 0 170.029 2.7456 170.029 6.12133C170.029 9.50832 172.947 12.2539 176.559 12.2539Z" fill="#E5E5E5"/>
<path d="M209.475 15.6667C213.078 15.6667 215.998 12.9244 215.998 9.54159C215.998 6.1588 213.078 3.4165 209.475 3.4165C205.873 3.4165 202.953 6.1588 202.953 9.54159C202.953 12.9244 205.873 15.6667 209.475 15.6667Z" fill="#E5E5E5"/>
<path d="M144.098 15.6667C147.705 15.6667 150.628 12.9244 150.628 9.54159C150.628 6.1588 147.705 3.4165 144.098 3.4165C140.492 3.4165 137.568 6.1588 137.568 9.54159C137.568 12.9244 140.492 15.6667 144.098 15.6667Z" fill="#E5E5E5"/>
<path d="M238.98 24.5043C242.585 24.5043 245.499 21.7587 245.499 18.3717C245.499 14.996 242.585 12.2542 238.98 12.2542C235.368 12.2542 232.446 14.9922 232.446 18.3717C232.446 21.7587 235.368 24.5043 238.98 24.5043Z" fill="#E5E5E5"/>
<path d="M112.427 24.5043C116.031 24.5043 118.953 21.762 118.953 18.3792C118.953 14.9964 116.031 12.2542 112.427 12.2542C108.822 12.2542 105.9 14.9964 105.9 18.3792C105.9 21.762 108.822 24.5043 112.427 24.5043Z" fill="#E5E5E5"/>
<path d="M268.01 38.9784C271.617 38.9784 274.541 36.2361 274.541 32.8534C274.541 29.4706 271.617 26.7283 268.01 26.7283C264.404 26.7283 261.48 29.4706 261.48 32.8534C261.48 36.2361 264.404 38.9784 268.01 38.9784Z" fill="#E5E5E5"/>
<path d="M293.794 59.923C297.394 59.923 300.313 57.1774 300.313 53.8017C300.313 50.4184 297.394 47.6729 293.794 47.6729C290.178 47.6729 287.26 50.4147 287.26 53.8017C287.264 57.1737 290.182 59.923 293.794 59.923Z" fill="#E5E5E5"/>
<path d="M314.443 84.9223C318.045 84.9223 320.966 82.18 320.966 78.7972C320.966 75.4144 318.045 72.6721 314.443 72.6721C310.841 72.6721 307.92 75.4144 307.92 78.7972C307.92 82.18 310.841 84.9223 314.443 84.9223Z" fill="#E5E5E5"/>
<path d="M330.432 112.093C334.039 112.093 336.962 109.35 336.962 105.968C336.962 102.585 334.039 99.8425 330.432 99.8425C326.826 99.8425 323.902 102.585 323.902 105.968C323.902 109.35 326.826 112.093 330.432 112.093Z" fill="#E5E5E5"/>
<path d="M341.298 143.311C344.902 143.311 347.824 140.565 347.824 137.178C347.824 133.792 344.902 131.046 341.298 131.046C337.693 131.046 334.771 133.792 334.771 137.178C334.771 140.565 337.693 143.311 341.298 143.311Z" fill="#E5E5E5"/>
<path d="M345.492 174.897C349.096 174.897 352.018 172.155 352.018 168.772C352.018 165.389 349.096 162.647 345.492 162.647C341.887 162.647 338.965 165.389 338.965 168.772C338.965 172.155 341.887 174.897 345.492 174.897Z" fill="#E5E5E5"/>
<path d="M343.477 206.194C347.082 206.194 350.004 203.451 350.004 200.069C350.004 196.686 347.082 193.944 343.477 193.944C339.873 193.944 336.951 196.686 336.951 200.069C336.951 203.451 339.873 206.194 343.477 206.194Z" fill="#E5E5E5"/>
<path d="M335.879 237.09C339.485 237.09 342.409 234.347 342.409 230.964C342.409 227.582 339.485 224.839 335.879 224.839C332.272 224.839 329.349 227.582 329.349 230.964C329.349 234.347 332.272 237.09 335.879 237.09Z" fill="#E5E5E5"/>
<path d="M322.822 266.439C326.429 266.439 329.352 263.697 329.352 260.314C329.352 256.932 326.429 254.189 322.822 254.189C319.216 254.189 316.292 256.932 316.292 260.314C316.292 263.697 319.216 266.439 322.822 266.439Z" fill="#E5E5E5"/>
<path d="M302.795 293.082C306.402 293.082 309.325 290.338 309.325 286.953C309.325 283.568 306.402 280.824 302.795 280.824C299.189 280.824 296.265 283.568 296.265 286.953C296.265 290.338 299.189 293.082 302.795 293.082Z" fill="#E5E5E5"/>
<path d="M278.569 316.614C282.171 316.614 285.091 313.872 285.091 310.489C285.091 307.106 282.171 304.364 278.569 304.364C274.966 304.364 272.046 307.106 272.046 310.489C272.046 313.872 274.966 316.614 278.569 316.614Z" fill="#E5E5E5"/>
<path d="M77.4806 319.48C81.0871 319.48 84.0108 316.739 84.0108 313.359C84.0108 309.978 81.0871 307.237 77.4806 307.237C73.8741 307.237 70.9504 309.978 70.9504 313.359C70.9504 316.739 73.8741 319.48 77.4806 319.48Z" fill="#E5E5E5"/>
<path d="M50.6243 295.632C54.2329 295.632 57.1582 292.89 57.1582 289.507C57.1582 286.124 54.2329 283.382 50.6243 283.382C47.0157 283.382 44.0903 286.124 44.0903 289.507C44.0903 292.89 47.0157 295.632 50.6243 295.632Z" fill="#E5E5E5"/>
<path d="M30.2767 268.469C33.8811 268.469 36.8031 265.725 36.8031 262.34C36.8031 258.955 33.8811 256.211 30.2767 256.211C26.6722 256.211 23.7502 258.955 23.7502 262.34C23.7502 265.725 26.6722 268.469 30.2767 268.469Z" fill="#E5E5E5"/>
<path d="M16.158 237.558C19.7624 237.558 22.6844 234.816 22.6844 231.433C22.6844 228.05 19.7624 225.308 16.158 225.308C12.5536 225.308 9.63159 228.05 9.63159 231.433C9.63159 234.816 12.5536 237.558 16.158 237.558Z" fill="#E5E5E5"/>
<path d="M8.54106 205.425C12.1455 205.425 15.0675 202.679 15.0675 199.292C15.0675 195.905 12.1455 193.16 8.54106 193.16C4.93662 193.16 2.01465 195.905 2.01465 199.292C2.01465 202.679 4.93662 205.425 8.54106 205.425Z" fill="#E5E5E5"/>
<path d="M6.52641 172.493C10.1309 172.493 13.0529 169.753 13.0529 166.372C13.0529 162.991 10.1309 160.25 6.52641 160.25C2.92197 160.25 0 162.991 0 166.372C0 169.753 2.92197 172.493 6.52641 172.493Z" fill="#E5E5E5"/>
<path d="M11.8048 140.663C15.4092 140.663 18.3312 137.921 18.3312 134.538C18.3312 131.156 15.4092 128.413 11.8048 128.413C8.20032 128.413 5.27832 131.156 5.27832 134.538C5.27832 137.921 8.20032 140.663 11.8048 140.663Z" fill="#E5E5E5"/>
<path d="M22.3668 110.229C25.9714 110.229 28.8895 107.491 28.8895 104.108C28.8895 100.728 25.9714 97.9827 22.3668 97.9827C18.7548 97.9827 15.8367 100.728 15.8367 104.108C15.8367 107.487 18.7548 110.229 22.3668 110.229Z" fill="#E5E5E5"/>
<path d="M37.8899 83.2116C41.4922 83.2116 44.4125 80.4693 44.4125 77.0865C44.4125 73.7037 41.4922 70.9614 37.8899 70.9614C34.2875 70.9614 31.3672 73.7037 31.3672 77.0865C31.3672 80.4693 34.2875 83.2116 37.8899 83.2116Z" fill="#E5E5E5"/>
<path d="M59.1696 58.9853C62.772 58.9853 65.6923 56.243 65.6923 52.8602C65.6923 49.4774 62.772 46.7351 59.1696 46.7351C55.5673 46.7351 52.647 49.4774 52.647 52.8602C52.647 56.243 55.5673 58.9853 59.1696 58.9853Z" fill="#E5E5E5"/>
<path d="M84.3191 39.8904C87.9215 39.8904 90.8417 37.1498 90.8417 33.769C90.8417 30.3883 87.9215 27.6477 84.3191 27.6477C80.7167 27.6477 77.7964 30.3883 77.7964 33.769C77.7964 37.1498 80.7167 39.8904 84.3191 39.8904Z" fill="#E5E5E5"/>
<path d="M175.602 179.983C177.21 179.983 178.513 178.68 178.513 177.073C178.513 175.465 177.21 174.162 175.602 174.162C173.995 174.162 172.691 175.465 172.691 177.073C172.691 178.68 173.995 179.983 175.602 179.983Z" fill="#E5E5E5"/>
</svg>
