<svg width="573" height="350" viewBox="0 0 573 350" fill="none" xmlns="http://www.w3.org/2000/svg">
<path d="M405.974 205.479L286.366 174.116L166.748 205.479H286.366H405.974Z" fill="#E5E5E5"/>
<path d="M399.046 207.714H173.018V214.933H399.046V207.714Z" fill="#E5E5E5"/>
<path d="M399.046 217.188H173.018V224.401H399.046V217.188Z" fill="#E5E5E5"/>
<path d="M219.345 188.955L286.366 171.848L353.394 188.955V163.025H286.366H219.345V188.955Z" fill="#E5E5E5"/>
<path d="M357.595 153.737H215.129V160.943H357.595V153.737Z" fill="#E5E5E5"/>
<path d="M346.158 152.011V107.377H226.564V152.011H245.919C245.919 145.419 245.919 137.173 245.919 132.768C245.919 124.769 252.847 124.769 252.847 124.769C252.847 124.769 259.774 124.769 259.774 132.768C259.774 137.173 259.774 145.416 259.774 152.011H279.438C279.438 145.419 279.438 137.173 279.438 132.768C279.438 124.769 286.366 124.769 286.366 124.769C286.366 124.769 293.294 124.769 293.294 132.768C293.294 137.173 293.294 145.416 293.294 152.011H312.94C312.94 145.419 312.94 137.173 312.94 132.768C312.94 124.769 319.868 124.769 319.868 124.769C319.868 124.769 326.796 124.769 326.796 132.768C326.796 137.173 326.796 145.416 326.796 152.011H346.158Z" fill="#E5E5E5"/>
<path d="M349.787 101.646H222.556V105.926H349.787V101.646Z" fill="#E5E5E5"/>
<path d="M286.366 100.059H345.975C345.975 100.059 348.423 32.1699 286.366 32.1699C224.336 32.1699 226.757 100.059 226.757 100.059H286.366V100.059Z" fill="#E5E5E5"/>
<path d="M298.078 26.5407H295.562V16.2086H298.078V11.936H295.379C295.301 9.32164 294.433 0 286.285 0C278.129 0 277.278 9.32503 277.204 11.936H274.627V16.2086H277.19V26.5407H274.627V30.8166H298.078V26.5407Z" fill="#E5E5E5"/>
<path d="M173.221 349.885H399.406V226.612H173.221V349.885V349.885ZM376.215 230.182H389.138V327.685H376.215V230.182ZM372.255 328.994H393.102V346.301H372.255V328.994ZM337.586 230.182H350.502V327.685H337.586V230.182ZM333.612 328.994H354.466V346.301H333.612V328.994ZM298.94 230.182H311.856V327.685H298.94V230.182ZM294.989 328.994H315.83V346.301H294.989V328.994ZM260.303 230.182H273.22V327.685H260.303V230.182ZM256.323 328.994H277.177V346.301H256.323V328.994ZM221.664 230.182H234.573V327.685H221.664V230.182ZM217.693 328.994H238.534V346.301H217.693V328.994ZM183.021 230.182H195.937V327.685H183.021V230.182ZM179.054 328.994H199.894V346.301H179.054V328.994Z" fill="#E5E5E5"/>
<path d="M485.827 332.357H401.63V350H485.827V332.357Z" fill="#E5E5E5"/>
<path d="M572.671 332.357H488.495V350H572.671V332.357Z" fill="#E5E5E5"/>
<path d="M404.387 329.319H483.06V210.647H404.387V329.319ZM463.915 221.881H475.403V231.501H463.915V221.881ZM463.915 251.284H475.403V274.268H463.915V251.284ZM463.915 294.576H475.403V317.559H463.915V294.576ZM438.259 221.881H449.748V231.501H438.259V221.881ZM438.259 251.284H449.748V274.268H438.259V251.284ZM438.259 294.576H449.748V317.559H438.259V294.576ZM412.6 221.881H424.088V231.501H412.6V221.881ZM412.6 251.284H424.088V274.268H412.6V251.284ZM412.6 294.576H424.088V317.559H412.6V294.576Z" fill="#E5E5E5"/>
<path d="M569.904 221.881H491.252V329.323H569.904V221.881ZM510.543 317.563H499.037V294.579H510.543V317.563ZM510.543 279.076H499.037V256.089H510.543V279.076ZM510.543 241.121H499.037V231.501H510.543V241.121ZM536.205 317.563H524.707V294.579H536.205V317.563ZM536.205 279.076H524.707V256.089H536.205V279.076ZM536.205 241.121H524.707V231.501H536.205V241.121ZM561.864 317.563H550.366V294.579H561.864V317.563ZM561.864 279.076H550.366V256.089H561.864V279.076ZM561.864 241.121H550.366V231.501H561.864V241.121Z" fill="#E5E5E5"/>
<path d="M170.675 332.225H86.4717V349.868H170.675V332.225Z" fill="#E5E5E5"/>
<path d="M84.1862 332.225H0V349.868H84.1862V332.225Z" fill="#E5E5E5"/>
<path d="M167.911 210.521H89.2556V329.19H167.911V210.521ZM108.397 317.44H96.9021V294.457H108.397V317.44ZM108.397 274.135H96.9021V251.151H108.397V274.135ZM108.397 231.372H96.9021V221.745H108.397V231.372ZM134.056 317.44H122.561V294.457H134.056V317.44ZM134.056 274.135H122.561V251.151H134.056V274.135ZM134.056 231.372H122.561V221.745H134.056V231.372ZM159.715 317.44H148.22V294.457H159.715V317.44ZM159.715 274.135H148.22V251.151H159.715V274.135ZM159.715 231.372H148.22V221.745H159.715V231.372Z" fill="#E5E5E5"/>
<path d="M81.4392 221.746H2.7666V329.193H81.4392V221.746ZM22.3119 317.441H10.8234V294.457H22.3119V317.441ZM22.3119 278.947H10.8234V255.957H22.3119V278.947ZM22.3119 240.996H10.8234V231.372H22.3119V240.996ZM47.9743 317.441H36.4825V294.457H47.9743V317.441ZM47.9743 278.947H36.4825V255.957H47.9743V278.947ZM47.9743 240.996H36.4825V231.372H47.9743V240.996ZM73.63 317.441H62.1415V294.457H73.63V317.441ZM73.63 278.947H62.1415V255.957H73.63V278.947ZM73.63 240.996H62.1415V231.372H73.63V240.996Z" fill="#E5E5E5"/>
</svg>
