<svg width="455" height="350" viewBox="0 0 455 350" fill="none" xmlns="http://www.w3.org/2000/svg">
<path d="M151.356 19.1836H0V24.6566H151.356V19.1836Z" fill="#E5E5E5"/>
<path d="M144.5 6.85521V0H124.633V6.85521H115.059V0H95.177V6.85521H85.6031V0H65.7463V6.85521H56.1468V0H36.2952V6.85521H26.6907V0H6.83911V6.85521V13.7003H144.5V6.85521Z" fill="#E5E5E5"/>
<path d="M144.5 209.927V29.7979H6.83911V209.927H144.5ZM79.8394 50.4554C79.8394 42.7637 85.9091 42.7637 85.9091 42.7637C85.9091 42.7637 91.9736 42.7637 91.9736 50.4554C91.9736 54.6838 91.9736 62.6102 91.9736 68.9502H79.8341C79.8392 62.6051 79.8394 54.6838 79.8394 50.4554ZM79.8394 112.856C79.8394 105.16 85.9091 105.16 85.9091 105.16C85.9091 105.16 91.9736 105.16 91.9736 112.856C91.9736 117.075 91.9736 125.006 91.9736 131.351H79.8341C79.8392 125.006 79.8394 117.075 79.8394 112.856ZM79.8394 175.252C79.8394 167.556 85.9091 167.556 85.9091 167.556C85.9091 167.556 91.9736 167.556 91.9736 175.252C91.9736 179.471 91.9736 187.397 91.9736 193.732H79.8341C79.8392 187.397 79.8394 179.471 79.8394 175.252ZM59.3858 50.4554C59.3858 42.7637 65.4555 42.7637 65.4555 42.7637C65.4555 42.7637 71.515 42.7637 71.515 50.4554C71.515 54.6838 71.515 62.6102 71.515 68.9502H59.3808C59.3859 62.6051 59.3858 54.6838 59.3858 50.4554ZM59.3858 112.856C59.3858 105.16 65.4555 105.16 65.4555 105.16C65.4555 105.16 71.515 105.16 71.515 112.856C71.515 117.075 71.515 125.006 71.515 131.351H59.3808C59.3859 125.006 59.3858 117.075 59.3858 112.856ZM59.3858 175.252C59.3858 167.556 65.4555 167.556 65.4555 167.556C65.4555 167.556 71.515 167.556 71.515 175.252C71.515 179.471 71.515 187.397 71.515 193.732H59.3808C59.3859 187.397 59.3858 179.471 59.3858 175.252Z" fill="#E5E5E5"/>
<path d="M6.83911 349.999H144.5V227.054H6.83911V349.999ZM79.8394 254.067C79.8394 246.385 85.9091 246.385 85.9091 246.385C85.9091 246.385 91.9736 246.385 91.9736 254.067C91.9736 258.295 91.9736 266.221 91.9736 272.572H79.8341C79.8392 266.216 79.8394 258.295 79.8394 254.067ZM59.3858 254.077C59.3858 246.39 65.4555 246.39 65.4555 246.39C65.4555 246.39 71.515 246.39 71.515 254.077C71.515 258.3 71.515 266.232 71.515 272.572H59.3808C59.3859 266.232 59.3858 258.305 59.3858 254.077Z" fill="#E5E5E5"/>
<path d="M295.873 127.577H158.197V209.931H295.873V127.577Z" fill="#E5E5E5"/>
<path d="M302.742 116.952H151.355V122.43H302.742V116.952Z" fill="#E5E5E5"/>
<path d="M295.878 104.629V97.7788H276.001V104.629H266.422V97.7788H246.565V104.629H236.966V97.7788H217.104V104.629H207.53V97.7788H187.648V104.629H178.064V97.7788H158.197V104.629V111.469H295.878V104.629Z" fill="#E5E5E5"/>
<path d="M158.197 349.999H183.537V306.159C183.537 306.159 182.517 295.193 209.575 284.915C236.619 295.193 235.599 306.159 235.599 306.159V349.999H251.008V328.923C251.008 328.923 250.513 323.66 263.515 318.722C276.521 323.66 276.016 328.923 276.016 328.923V349.999H295.878V227.054H158.197V349.999Z" fill="#E5E5E5"/>
<path d="M454.445 19.1836H303.069V24.6566H454.445V19.1836Z" fill="#E5E5E5"/>
<path d="M447.589 6.85521V0H427.727V6.85521H418.148V0H398.271V6.85521H388.692V0H368.825V6.85521H359.231V0H339.374V6.85521H329.8V0H309.918V6.85521V13.7003H447.589V6.85521Z" fill="#E5E5E5"/>
<path d="M219.842 215.747H0V221.24H219.842H234.568H454.441V215.747H234.568H219.842Z" fill="#E5E5E5"/>
<path d="M309.918 29.7979V209.927H447.584V29.7979H309.918V29.7979ZM374.599 193.732H362.455C362.455 187.397 362.455 179.471 362.455 175.252C362.455 167.556 368.529 167.556 368.529 167.556C368.529 167.556 374.594 167.556 374.594 175.252C374.599 179.471 374.599 187.397 374.599 193.732ZM374.599 131.351H362.455C362.455 125.006 362.455 117.075 362.455 112.856C362.455 105.16 368.529 105.16 368.529 105.16C368.529 105.16 374.594 105.16 374.594 112.856C374.599 117.075 374.599 125.006 374.599 131.351ZM374.599 68.9502H362.455C362.455 62.6102 362.455 54.6838 362.455 50.4554C362.455 42.7637 368.529 42.7637 368.529 42.7637C368.529 42.7637 374.594 42.7637 374.594 50.4554C374.599 54.6838 374.599 62.6051 374.599 68.9502ZM395.047 193.732H382.924C382.924 187.397 382.924 179.471 382.924 175.252C382.924 167.556 388.983 167.556 388.983 167.556C388.983 167.556 395.047 167.556 395.047 175.252C395.047 179.471 395.047 187.397 395.047 193.732ZM395.047 131.351H382.924C382.924 125.006 382.924 117.075 382.924 112.856C382.924 105.16 388.983 105.16 388.983 105.16C388.983 105.16 395.047 105.16 395.047 112.856C395.047 117.075 395.047 125.006 395.047 131.351ZM395.047 68.9502H382.924C382.924 62.6102 382.924 54.6838 382.924 50.4554C382.924 42.7637 388.983 42.7637 388.983 42.7637C388.983 42.7637 395.047 42.7637 395.047 50.4554C395.047 54.6838 395.047 62.6051 395.047 68.9502Z" fill="#E5E5E5"/>
<path d="M309.918 349.999H447.584V227.054H309.918V349.999ZM382.924 254.077C382.924 246.39 388.983 246.39 388.983 246.39C388.983 246.39 395.047 246.39 395.047 254.077C395.047 258.3 395.047 266.232 395.047 272.572H382.924C382.924 266.232 382.924 258.305 382.924 254.077ZM362.455 254.067C362.455 246.385 368.529 246.385 368.529 246.385C368.529 246.385 374.594 246.385 374.594 254.067C374.594 258.295 374.594 266.221 374.594 272.572H362.449C362.454 266.216 362.455 258.295 362.455 254.067Z" fill="#E5E5E5"/>
</svg>
