<svg width="290" height="350" viewBox="0 0 290 350" fill="none" xmlns="http://www.w3.org/2000/svg">
<path d="M144.845 229.481C114.939 229.481 90.6968 253.724 90.6968 283.626H94.9726C94.9726 256.133 117.344 233.757 144.849 233.757C172.353 233.757 194.725 256.129 194.725 283.626H198.997C198.994 253.724 174.751 229.481 144.845 229.481Z" fill="#E5E5E5"/>
<path d="M192.278 283.629C192.278 257.436 171.046 236.204 144.846 236.204C118.653 236.204 97.417 257.436 97.417 283.629H101.081C101.081 259.502 120.715 239.864 144.846 239.864C168.976 239.864 188.614 259.498 188.614 283.629H192.278Z" fill="#E5E5E5"/>
<path d="M186.171 283.63C186.171 260.814 167.665 242.312 144.843 242.312C122.023 242.312 103.521 260.814 103.521 283.63H106.413C106.413 262.964 123.226 246.151 143.892 246.151C164.557 246.151 181.367 262.964 181.367 283.63H186.171Z" fill="#E5E5E5"/>
<path d="M143.888 260.607C131.176 260.607 120.866 270.914 120.866 283.629H166.917C166.917 270.914 156.607 260.607 143.888 260.607Z" fill="#E5E5E5"/>
<path d="M178.926 283.629C178.926 264.284 163.242 248.601 143.891 248.601C124.543 248.601 108.856 264.281 108.856 283.629H118.425C118.425 269.588 129.847 258.163 143.888 258.163C157.935 258.163 169.364 269.592 169.364 283.629H178.926Z" fill="#E5E5E5"/>
<path d="M139.224 302.97H123.246V350H139.224V302.97Z" fill="#E5E5E5"/>
<path d="M166.445 302.97H150.468V350H166.445V302.97Z" fill="#E5E5E5"/>
<path d="M169.395 287.502H144.845H120.288H113.058H90.6934V350H120.288V299.508H142.88V350H146.81V299.508H169.395V350H198.994V287.502H176.632H169.395Z" fill="#E5E5E5"/>
<path d="M90.6934 260.607C100.259 230.051 134.259 225.607 134.259 225.607V222.356H90.6934V260.607Z" fill="#E5E5E5"/>
<path d="M155.429 225.607C155.429 225.607 189.429 230.051 198.994 260.607V222.359H155.429V225.607V225.607Z" fill="#E5E5E5"/>
<path d="M152.58 222.561V218.796H158.464V187.848H131.236V218.796H137.106V222.561H152.58Z" fill="#E5E5E5"/>
<path d="M169.074 97.1578H169.133H194.991V84.1242L169.133 63.1997V63.1577H118.645L92.7249 84.1242V97.1578H118.645H169.074Z" fill="#E5E5E5"/>
<path d="M121.107 60.3087H166.613H171.346L186.988 72.9298V60.3087V58.4801V54.4106L182.188 49.3797V34.7832H183.275C183.275 34.7832 183.202 29.6509 178.311 29.06V24.8646H176.556V29.06C171.661 29.6509 171.591 34.7832 171.591 34.7832H173.203V39.961L166.62 33.0701V30.9969H166.588V20.6622H168.2C168.2 20.6622 168.13 15.5194 163.232 14.9321V10.7367H161.477V14.9321C156.582 15.5194 156.509 20.6622 156.509 20.6622H157.596V30.9969H149.079V9.92554H150.688C150.688 9.92554 150.618 4.78622 145.723 4.19537V0H143.968V4.19537C139.07 4.78622 139 9.92554 139 9.92554H140.091V30.9969H132.078V20.6622H133.686C133.686 20.6622 133.616 15.5194 128.721 14.9321V10.7367H126.966V14.9321C122.072 15.5194 122.002 20.6622 122.002 20.6622H123.089V30.9969L114.527 39.9576V34.7797H116.139C116.139 34.7797 116.069 29.6474 111.174 29.0565V24.8611H109.419V29.0565C104.521 29.6474 104.451 34.7797 104.451 34.7797H105.538V49.3762L100.738 54.4071V58.4767V60.3051V72.9263L116.38 60.3051H121.107V60.3087Z" fill="#E5E5E5"/>
<path d="M213.458 187.848H161.847V198.532H213.458V187.848Z" fill="#E5E5E5"/>
<path d="M161.847 216.656H203.483V349.999H213.458V216.656V202H161.847V216.656Z" fill="#E5E5E5"/>
<path d="M289.698 318.751H217.324V350H289.698V318.751Z" fill="#E5E5E5"/>
<path d="M247.8 279.091H224.67V312.759H247.8V279.091Z" fill="#E5E5E5"/>
<path d="M281.269 279.091H258.138V312.759H281.269V279.091Z" fill="#E5E5E5"/>
<path d="M247.8 236.2H224.67V269.868H247.8V236.2Z" fill="#E5E5E5"/>
<path d="M281.269 236.2H258.138V269.868H281.269V236.2Z" fill="#E5E5E5"/>
<path d="M289.698 210.38H217.324V229.483H289.698V210.38Z" fill="#E5E5E5"/>
<path d="M289.698 195.484H217.324V205.032H289.698V195.484Z" fill="#E5E5E5"/>
<path d="M281.269 168.326H217.324V187.429H281.269V168.326Z" fill="#E5E5E5"/>
<path d="M289.698 151.118H217.324V160.666H289.698V151.118Z" fill="#E5E5E5"/>
<path d="M127.848 187.848H76.2412V198.532H127.848V187.848Z" fill="#E5E5E5"/>
<path d="M127.851 202H76.2412V216.656V349.999H86.2157V216.656H127.851V202Z" fill="#E5E5E5"/>
<path d="M72.3704 318.751H0V350H72.3704V318.751Z" fill="#E5E5E5"/>
<path d="M65.028 279.091H41.8975V312.759H65.028V279.091Z" fill="#E5E5E5"/>
<path d="M31.5596 279.091H8.42554V312.759H31.5596V279.091Z" fill="#E5E5E5"/>
<path d="M65.028 236.2H41.8975V269.868H65.028V236.2Z" fill="#E5E5E5"/>
<path d="M31.5596 236.2H8.42554V269.868H31.5596V236.2Z" fill="#E5E5E5"/>
<path d="M72.3704 210.38H0V229.483H72.3704V210.38Z" fill="#E5E5E5"/>
<path d="M72.3704 195.484H0V205.032H72.3704V195.484Z" fill="#E5E5E5"/>
<path d="M201.235 165.357H86.2148V168.615H201.235V165.357Z" fill="#E5E5E5"/>
<path d="M72.3702 168.326H8.42554V187.429H72.3702V168.326Z" fill="#E5E5E5"/>
<path d="M72.3704 151.118H0V160.666H72.3704V151.118Z" fill="#E5E5E5"/>
<path d="M143.724 139.909C105.958 139.909 84.1809 160.669 84.1809 160.669H143.724H203.27C203.27 160.669 181.489 139.909 143.724 139.909Z" fill="#E5E5E5"/>
<path d="M76.2412 171.259V184.485H144.85H213.458V171.259H144.85H76.2412Z" fill="#E5E5E5"/>
<path d="M145.808 114.67H143.892H135.319H76.2412V160.669C76.2412 160.669 95.6029 134.035 141.892 133.266H147.804C194.097 134.035 213.455 160.669 213.455 160.669V114.67H164.589H145.808Z" fill="#E5E5E5"/>
<path d="M143.723 111.411H199.875V100.619H143.723H139.455H87.8408V111.411H139.455H143.723Z" fill="#E5E5E5"/>
</svg>
