<svg width="700" height="350" viewBox="0 0 700 350" fill="none" xmlns="http://www.w3.org/2000/svg">
<path d="M676.212 221.776V158.179H697.346C697.346 158.179 688.894 103.008 680.434 50.4586C671.965 -2.09079 637.602 0.011539 637.602 0.011539C637.602 0.011539 93.053 0.011539 46.5222 0.011539C-1.22493e-05 0.011539 0 76.7333 0 76.7333V316.372H137.28C136.818 313.708 136.544 311.018 136.544 308.226C136.544 281.713 158.242 260.145 184.924 260.145C211.589 260.145 233.296 281.722 233.296 308.226C233.296 311.009 233.005 313.708 232.551 316.372H578.629C578.167 313.708 577.876 311.018 577.876 308.226C577.876 281.713 599.574 260.145 626.256 260.145C652.93 260.145 674.637 281.722 674.637 308.226C674.637 311.009 674.328 313.708 673.875 316.372H700V237.548L676.212 221.776ZM106 295.085C106 297.544 103.988 299.553 101.505 299.553H20.0971C17.6139 299.553 15.6015 297.544 15.6015 295.085V154.238C15.6015 151.787 17.6225 149.787 20.0971 149.787H101.505C103.988 149.787 106 151.787 106 154.238V295.085ZM124.256 75.9417C124.256 78.41 122.227 80.4102 119.744 80.4102H53.3982C50.915 80.4102 48.9112 78.41 48.9112 75.9417V35.9977C48.9112 33.5379 50.9235 31.5377 53.3982 31.5377H119.744C122.235 31.5377 124.256 33.5379 124.256 35.9977V75.9417ZM229.871 217.835C229.871 220.303 227.876 222.304 225.384 222.304H159.039C156.556 222.304 154.535 220.303 154.535 217.835V177.9C154.535 175.431 156.564 173.431 159.039 173.431H225.384C227.876 173.431 229.871 175.431 229.871 177.9V217.835ZM229.871 75.9417C229.871 78.41 227.876 80.4102 225.384 80.4102H159.039C156.556 80.4102 154.535 78.41 154.535 75.9417V35.9977C154.535 33.5379 156.564 31.5377 159.039 31.5377H225.384C227.876 31.5377 229.871 33.5379 229.871 35.9977V75.9417ZM577.08 35.9977C577.08 33.5379 579.101 31.5377 581.575 31.5377H647.929C650.412 31.5377 652.425 33.5379 652.425 35.9977V75.9417C652.425 78.41 650.412 80.4102 647.929 80.4102H581.575C579.101 80.4102 577.08 78.41 577.08 75.9417V35.9977ZM335.512 217.835C335.512 220.303 333.499 222.304 331.025 222.304H264.671C262.187 222.304 260.167 220.303 260.167 217.835V177.9C260.167 175.431 262.187 173.431 264.671 173.431H331.025C333.499 173.431 335.512 175.431 335.512 177.9V217.835ZM335.512 75.9417C335.512 78.41 333.499 80.4102 331.025 80.4102H264.671C262.187 80.4102 260.167 78.41 260.167 75.9417V35.9977C260.167 33.5379 262.187 31.5377 264.671 31.5377H331.025C333.499 31.5377 335.512 33.5379 335.512 35.9977V75.9417ZM441.152 217.835C441.152 220.303 439.131 222.304 436.657 222.304H370.303C367.819 222.304 365.807 220.303 365.807 217.835V177.9C365.807 175.431 367.819 173.431 370.303 173.431H436.657C439.131 173.431 441.152 175.431 441.152 177.9V217.835ZM441.152 75.9417C441.152 78.41 439.131 80.4102 436.657 80.4102H370.303C367.819 80.4102 365.807 78.41 365.807 75.9417V35.9977C365.807 33.5379 367.819 31.5377 370.303 31.5377H436.657C439.131 31.5377 441.152 33.5379 441.152 35.9977V75.9417ZM546.775 217.835C546.775 220.303 544.755 222.304 542.289 222.304H475.943C473.451 222.304 471.448 220.303 471.448 217.835V177.9C471.448 175.431 473.451 173.431 475.943 173.431H542.289C544.755 173.431 546.775 175.431 546.775 177.9V217.835ZM546.775 75.9417C546.775 78.41 544.755 80.4102 542.289 80.4102H475.943C473.451 80.4102 471.448 78.41 471.448 75.9417V35.9977C471.448 33.5379 473.451 31.5377 475.943 31.5377H542.289C544.755 31.5377 546.775 33.5379 546.775 35.9977V75.9417ZM665.894 221.776L622.172 221.682C622.018 221.699 621.898 221.776 621.744 221.776H581.567C579.092 221.776 577.071 219.776 577.071 217.307V162.656C577.071 160.179 579.092 158.187 581.567 158.187H601.261H621.744H665.894V221.776Z" fill="#E5E5E5"/>
<path d="M626.247 266.444C603.068 266.444 584.212 285.186 584.212 308.218C584.212 331.249 603.068 350 626.247 350C649.419 350 668.283 331.249 668.283 308.218C668.283 285.186 649.419 266.444 626.247 266.444ZM626.247 333.837C612.033 333.837 600.465 322.338 600.465 308.218C600.465 294.097 612.033 282.598 626.247 282.598C640.462 282.598 652.022 294.097 652.022 308.218C652.022 322.338 640.462 333.837 626.247 333.837Z" fill="#E5E5E5"/>
<path d="M626.248 288.905C615.536 288.905 606.802 297.578 606.802 308.226C606.802 318.874 615.527 327.53 626.248 327.53C636.952 327.53 645.677 318.874 645.677 308.226C645.677 297.578 636.952 288.905 626.248 288.905Z" fill="#E5E5E5"/>
<path d="M184.188 266.444C161.017 266.444 142.17 285.186 142.17 308.218C142.17 331.249 161.017 350 184.188 350C207.377 350 226.232 331.249 226.232 308.218C226.232 285.186 207.377 266.444 184.188 266.444ZM184.188 333.837C169.974 333.837 158.405 322.338 158.405 308.218C158.405 294.097 169.974 282.598 184.188 282.598C198.403 282.598 209.971 294.097 209.971 308.218C209.971 322.338 198.403 333.837 184.188 333.837Z" fill="#E5E5E5"/>
<path d="M184.188 327.521C194.918 327.521 203.617 318.875 203.617 308.209C203.617 297.543 194.918 288.897 184.188 288.897C173.457 288.897 164.759 297.543 164.759 308.209C164.759 318.875 173.457 327.521 184.188 327.521Z" fill="#E5E5E5"/>
</svg>
