<svg width="536" height="350" viewBox="0 0 536 350" fill="none" xmlns="http://www.w3.org/2000/svg">
<path d="M535.694 67.3159L268.57 0L1.45288 67.3159H268.57H535.694Z" fill="#E5E5E5"/>
<path d="M0.343994 313.566H534.465V75.6044H0.343994V313.566ZM41.0644 302.1H20.4693V135.795H41.0644V302.1ZM108.593 302.1H88.0037V135.795H108.593V302.1ZM176.133 302.1H155.538V135.795H176.133V302.1ZM243.656 302.1H223.061V135.795H243.656V302.1ZM311.196 302.1H290.601V135.795H311.196V302.1ZM378.725 302.1H358.13V135.795H378.725V302.1ZM446.259 302.1H425.67V135.795H446.259V302.1ZM513.799 302.1H493.204V135.795H513.799V302.1ZM513.799 125.902H20.4693V107.687H513.799V125.902ZM14.3761 87.1031H522.759V98.9894H14.3761V87.1031Z" fill="#E5E5E5"/>
<path d="M533.995 323.066H0V350H533.995V323.066Z" fill="#E5E5E5"/>
</svg>
