<svg width="12" height="12" viewBox="0 0 12 12" fill="none" xmlns="http://www.w3.org/2000/svg">
<path d="M0.338549 5.14724C0.399461 5.08654 0.465538 5.03532 0.535059 4.99076L5.18586 0.340179C5.63957 -0.113321 6.37568 -0.113536 6.82961 0.340394C7.28354 0.79411 7.28354 1.53 6.82961 1.98414L2.8243 5.98945L6.85027 10.0156C7.3042 10.4694 7.3042 11.205 6.85027 11.6594C6.6232 11.8867 6.32553 11.9999 6.0285 11.9999C5.73148 11.9999 5.43359 11.8867 5.20674 11.6594L0.535059 6.98728C0.465538 6.94273 0.39903 6.8915 0.338549 6.83081C0.106526 6.59878 -0.00539629 6.29315 0.000199826 5.98902C-0.00539629 5.6849 0.106526 5.37948 0.338549 5.14724Z" fill="black"/>
<path d="M4.33855 5.14724C4.39946 5.08654 4.46554 5.03532 4.53506 4.99076L9.18586 0.340179C9.63957 -0.113321 10.3757 -0.113536 10.8296 0.340394C11.2835 0.79411 11.2835 1.53 10.8296 1.98414L6.8243 5.98945L10.8503 10.0156C11.3042 10.4694 11.3042 11.205 10.8503 11.6594C10.6232 11.8867 10.3255 11.9999 10.0285 11.9999C9.73148 11.9999 9.43359 11.8867 9.20674 11.6594L4.53506 6.98728C4.46554 6.94273 4.39903 6.8915 4.33855 6.83081C4.10653 6.59878 3.9946 6.29315 4.0002 5.98902C3.9946 5.6849 4.10653 5.37948 4.33855 5.14724Z" fill="black"/>
</svg>
