<svg width="12" height="12" viewBox="0 0 12 12" fill="none" xmlns="http://www.w3.org/2000/svg">
<g clip-path="url(#clip0_110_790)">
<path d="M9.25683 6.85264C9.19592 6.91333 9.12984 6.96456 9.06032 7.00911L4.40952 11.6597C3.95581 12.1132 3.21971 12.1134 2.76577 11.6595C2.31184 11.2058 2.31184 10.4699 2.76577 10.0157L6.77108 6.01042L2.74511 1.98424C2.29118 1.53052 2.29118 0.794847 2.74511 0.340487C2.97218 0.113198 3.26986 -1.52588e-05 3.56688 -1.52588e-05C3.8639 -1.52588e-05 4.16179 0.113198 4.38865 0.340487L9.06032 5.01259C9.12984 5.05715 9.19635 5.10837 9.25683 5.16907C9.48886 5.40109 9.60078 5.70673 9.59518 6.01085C9.60078 6.31498 9.48886 6.6204 9.25683 6.85264Z" fill="black"/>
</g>
<defs>
<clipPath id="clip0_110_790">
<rect width="12" height="12" fill="white" transform="translate(12 12) rotate(-180)"/>
</clipPath>
</defs>
</svg>
