<svg width="86" height="32" viewBox="0 0 86 32" fill="none" xmlns="http://www.w3.org/2000/svg">
<g clip-path="url(#clip0_206_525)">
<path d="M44.4001 10.5991L48.4917 10.3342C48.585 11.0044 48.7562 11.5032 49.0362 11.8617C49.4873 12.4228 50.1096 12.7034 50.9342 12.7034C51.5409 12.7034 52.0232 12.5631 52.3499 12.2669C52.661 12.0331 52.8477 11.659 52.8477 11.2694C52.8477 10.8953 52.6766 10.5368 52.381 10.303C52.0698 10.0224 51.3386 9.74185 50.1874 9.49246C48.305 9.07161 46.9515 8.51048 46.1581 7.79348C45.3647 7.12324 44.9135 6.14127 44.9446 5.09694C44.9446 4.37994 45.1624 3.66294 45.5669 3.07064C46.0336 2.4004 46.6715 1.87044 47.4338 1.57429C48.2583 1.21579 49.4096 1.02875 50.8564 1.02875C52.6299 1.02875 53.9834 1.35607 54.9168 2.02631C55.8502 2.68096 56.4103 3.74088 56.5814 5.19046L52.5365 5.42427C52.4276 4.80079 52.2098 4.34877 51.852 4.05261C51.4942 3.75646 51.0275 3.61618 50.4208 3.61618C49.9229 3.61618 49.5496 3.72529 49.3007 3.92792C49.0673 4.11496 48.9117 4.39553 48.9273 4.70727C48.9273 4.94107 49.0517 5.15929 49.2384 5.29957C49.4407 5.48661 49.9229 5.65807 50.6852 5.81394C52.5677 6.2192 53.9056 6.62446 54.7301 7.04531C55.5546 7.46616 56.1458 7.98053 56.5036 8.58842C56.877 9.21189 57.0637 9.92889 57.0481 10.6615C57.0481 11.5343 56.7992 12.4072 56.3014 13.1398C55.788 13.9036 55.0724 14.4959 54.2323 14.8544C53.3455 15.244 52.2254 15.4467 50.8875 15.4467C48.5228 15.4467 46.8893 14.9947 45.9714 14.075C45.0535 13.1554 44.509 12.002 44.4001 10.5991ZM0.980101 15.2129V1.27814H8.15195C9.47431 1.27814 10.5011 1.38725 11.2012 1.62105C11.8857 1.83927 12.4924 2.29129 12.8969 2.89918C13.348 3.56942 13.5658 4.34877 13.5503 5.15929C13.597 6.53094 12.8969 7.84024 11.699 8.52607C11.2323 8.79105 10.7189 8.97809 10.1899 9.07161C10.5789 9.18072 10.9678 9.36776 11.3101 9.58598C11.5745 9.8042 11.7923 10.0536 11.9946 10.3186C12.2279 10.5835 12.4302 10.8797 12.6013 11.1914L14.686 15.2285H9.80101L7.49855 10.942C7.20297 10.3965 6.95405 10.038 6.7207 9.86655C6.40955 9.64833 6.03618 9.53922 5.66281 9.53922H5.28944V15.1973H0.980101V15.2129ZM5.28944 6.92061H7.10962C7.49855 6.88944 7.87192 6.82709 8.2453 6.73357C8.52533 6.68681 8.77424 6.53094 8.94537 6.29714C9.36541 5.73601 9.30318 4.94107 8.7898 4.45788C8.50977 4.22407 7.96527 4.09938 7.18741 4.09938H5.28944V6.92061ZM0 27.1525L4.09153 26.8875C4.18488 27.5577 4.35601 28.0565 4.63603 28.415C5.07164 28.9761 5.70948 29.2723 6.53401 29.2723C7.14074 29.2723 7.62301 29.132 7.94971 28.8359C8.26085 28.5865 8.44754 28.228 8.44754 27.8383C8.44754 27.4642 8.27641 27.1057 7.98082 26.8719C7.66968 26.5913 6.93849 26.3108 5.77171 26.0614C3.88929 25.6405 2.53582 25.0794 1.7424 24.3624C0.948987 23.6922 0.497829 22.7102 0.528944 21.6659C0.528944 20.9489 0.746744 20.2319 1.15123 19.6396C1.61795 18.9693 2.25579 18.4394 3.01809 18.1432C3.84262 17.7847 4.99385 17.5977 6.44067 17.5977C8.21418 17.5977 9.56766 17.925 10.5011 18.5952C11.4345 19.2655 11.979 20.3098 12.1501 21.7594L8.10528 21.9932C7.99638 21.3697 7.77858 20.9177 7.42077 20.6215C7.07851 20.3254 6.59624 20.1851 5.98951 20.2007C5.49168 20.2007 5.11831 20.3098 4.86939 20.528C4.62048 20.7151 4.48046 20.9956 4.49602 21.3074C4.49602 21.5412 4.62048 21.7594 4.80716 21.8997C5.00941 22.0867 5.49168 22.2582 6.25398 22.414C8.1364 22.8193 9.47431 23.2246 10.2988 23.6454C11.1234 24.0663 11.7145 24.5806 12.0724 25.1885C12.4457 25.812 12.6324 26.529 12.6324 27.246C12.6324 28.1189 12.3679 28.9761 11.8857 29.7087C11.3723 30.4725 10.6567 31.0648 9.81657 31.4233C8.92981 31.813 7.8097 32.0156 6.47178 32.0156C4.10709 32.0156 2.47359 31.5636 1.55572 30.6439C0.637844 29.7087 0.124457 28.5553 0 27.1525H0Z" fill="black"/>
<path d="M20.691 26.0614L24.4559 27.1992C24.2536 28.15 23.8336 29.0541 23.258 29.849C22.729 30.5504 22.029 31.096 21.2355 31.4545C20.4266 31.813 19.3998 32 18.1552 32C16.6462 32 15.4016 31.7818 14.4526 31.3453C13.4881 30.9089 12.6635 30.1296 11.9635 29.0229C11.2634 27.9162 10.9211 26.4978 10.9211 24.7677C10.9211 22.4608 11.5279 20.6839 12.7569 19.4525C13.9859 18.2211 15.7127 17.5977 17.953 17.5977C19.7109 17.5977 21.08 17.9562 22.0912 18.6576C23.0868 19.3746 23.8336 20.4657 24.3314 21.9308L20.5355 22.7725C20.4421 22.4452 20.3021 22.1179 20.1154 21.8373C19.8821 21.51 19.5865 21.2606 19.2287 21.0735C18.8709 20.8865 18.4664 20.8086 18.0619 20.8086C17.0818 20.8086 16.335 21.1982 15.8216 21.9932C15.4327 22.5699 15.2305 23.4895 15.2305 24.7365C15.2305 26.2796 15.4638 27.3395 15.9306 27.9162C16.3973 28.4929 17.0507 28.7735 17.9063 28.7735C18.7308 28.7735 19.3531 28.5397 19.7732 28.0877C20.1932 27.6045 20.5044 26.9342 20.691 26.0614ZM29.4808 17.8315H33.7746V22.7102H38.4729V17.8315H42.7978V31.7662H38.4729V26.1237H33.7746V31.7662H29.4808V17.8315Z" fill="black"/>
<path d="M42.2066 24.7988C42.2066 22.5232 42.8444 20.7462 44.1045 19.4837C45.3647 18.2212 47.1382 17.5821 49.394 17.5821C51.712 17.5821 53.4855 18.2056 54.7456 19.4525C56.0058 20.6995 56.6281 22.4452 56.6281 24.6897C56.6281 26.3264 56.348 27.6513 55.8035 28.6956C55.2746 29.7243 54.4501 30.566 53.4388 31.1271C52.3965 31.7039 51.1053 32 49.5651 32C47.9938 32 46.7026 31.7506 45.6758 31.2518C44.6179 30.7219 43.7467 29.8958 43.1711 28.8826C42.5333 27.7915 42.2066 26.4355 42.2066 24.7988ZM46.5004 24.8144C46.5004 26.2173 46.7648 27.2304 47.2782 27.8539C47.7916 28.4618 48.5072 28.7735 49.4095 28.7735C50.3274 28.7735 51.043 28.4774 51.5564 27.8695C52.0698 27.2616 52.3187 26.1861 52.3187 24.6274C52.3187 23.3181 52.0543 22.3517 51.5253 21.7594C50.9964 21.1515 50.2807 20.8554 49.3784 20.8554C48.585 20.8242 47.8227 21.1671 47.2938 21.775C46.7648 22.3829 46.5004 23.396 46.5004 24.8144ZM61.0307 24.7988C61.0307 22.5232 61.6686 20.7462 62.9287 19.4837C64.1888 18.2212 65.9624 17.5821 68.2182 17.5821C70.5362 17.5821 72.3252 18.2056 73.5698 19.4525C74.8144 20.6995 75.4522 22.4452 75.4522 24.6897C75.4522 26.3264 75.1722 27.6513 74.6277 28.6956C74.0988 29.7243 73.2742 30.566 72.263 31.1271C71.2207 31.7039 69.9294 32 68.3893 32C66.818 32 65.5268 31.7506 64.5 31.2518C63.4421 30.7219 62.5709 29.8958 61.9953 28.8826C61.3574 27.7915 61.0307 26.4355 61.0307 24.7988ZM65.3245 24.8144C65.3245 26.2173 65.589 27.2304 66.1024 27.8539C66.6158 28.4618 67.3314 28.7735 68.2337 28.7735C69.1516 28.7735 69.8672 28.4774 70.3806 27.8695C70.894 27.2616 71.1429 26.1861 71.1429 24.6274C71.1429 23.3181 70.8784 22.3517 70.3495 21.7594C69.8205 21.1515 69.1049 20.8554 68.2026 20.8554C67.4092 20.8242 66.6313 21.1671 66.1179 21.775C65.589 22.3829 65.3245 23.396 65.3245 24.8144Z" fill="black"/>
<path d="M75.0011 17.8315H79.2949V28.3371H86V31.7662H74.9855V17.8315H75.0011Z" fill="black"/>
<path d="M70.2684 17.0273C74.5913 13.7634 75.9243 8.23051 73.2458 4.66931C70.5673 1.10811 64.8915 0.867101 60.5686 4.13101C56.2457 7.39491 54.9126 12.9278 57.5911 16.489C60.2697 20.0502 65.9455 20.2912 70.2684 17.0273Z" fill="white"/>
<path d="M70.2684 17.0273C74.5913 13.7634 75.9243 8.23051 73.2458 4.66931C70.5673 1.10811 64.8915 0.867101 60.5686 4.13101C56.2457 7.39491 54.9126 12.9278 57.5911 16.489C60.2697 20.0502 65.9455 20.2912 70.2684 17.0273Z" fill="white"/>
<path d="M70.2684 17.0273C74.5913 13.7634 75.9243 8.23051 73.2458 4.66931C70.5673 1.10811 64.8915 0.867101 60.5686 4.13101C56.2457 7.39491 54.9126 12.9278 57.5911 16.489C60.2697 20.0502 65.9455 20.2912 70.2684 17.0273Z" stroke="black" stroke-miterlimit="10"/>
<path d="M61.0463 9.55476L62.602 8.46367L64.5155 11.1914C64.8422 11.6278 65.0912 12.0954 65.2778 12.6098C65.3867 12.9995 65.3556 13.4203 65.2001 13.7944C64.9978 14.262 64.6711 14.6517 64.2355 14.9323C63.7221 15.2908 63.2865 15.4934 62.9131 15.5557C62.5553 15.6181 62.182 15.5557 61.8397 15.3999C61.4663 15.2128 61.1396 14.9478 60.8907 14.6049L62.2286 13.358C62.3375 13.5294 62.4775 13.6853 62.6331 13.81C62.742 13.8879 62.8665 13.9347 63.0065 13.9347C63.1154 13.9347 63.2243 13.8879 63.3021 13.8256C63.4576 13.7321 63.5665 13.545 63.551 13.358C63.5043 13.093 63.3954 12.828 63.2243 12.6254L61.0463 9.55476ZM65.7134 11.2849L67.1291 10.1626C67.2847 10.3497 67.487 10.49 67.7048 10.5679C68.0159 10.6614 68.3426 10.5991 68.6071 10.3965C68.7938 10.2718 68.9493 10.1003 69.0116 9.88208C69.1049 9.60152 68.9493 9.28978 68.6693 9.19626C68.6226 9.18067 68.576 9.16508 68.5293 9.16508C68.3426 9.1495 68.0159 9.22743 67.5336 9.43006C66.7402 9.75739 66.1179 9.88208 65.6512 9.83532C65.2001 9.78856 64.78 9.55476 64.5311 9.16508C64.3444 8.90011 64.2511 8.58837 64.2355 8.27663C64.2355 7.91813 64.3288 7.55963 64.5311 7.26348C64.8267 6.84263 65.1845 6.48413 65.6201 6.20356C66.2735 5.75154 66.8491 5.53333 67.3469 5.53333C67.8448 5.53333 68.3115 5.76713 68.7471 6.25032L67.3469 7.357C67.0669 6.9985 66.538 6.92056 66.1802 7.20113L66.1335 7.24789C65.9779 7.34141 65.869 7.48169 65.8068 7.65315C65.7601 7.77785 65.7912 7.91813 65.869 8.02724C65.9312 8.10517 66.0246 8.16752 66.1335 8.16752C66.2579 8.18311 66.4757 8.12076 66.7869 7.98048C67.5647 7.65315 68.1559 7.46611 68.5604 7.40376C68.9027 7.34141 69.2605 7.37258 69.5872 7.51287C69.8828 7.63756 70.1317 7.85578 70.3028 8.12076C70.5206 8.4325 70.6451 8.80658 70.6606 9.19626C70.6762 9.60152 70.5673 9.99119 70.3495 10.3341C70.0694 10.755 69.7116 11.1135 69.2916 11.394C68.4359 11.9863 67.7359 12.2357 67.1758 12.1422C66.5691 12.0487 66.0713 11.7369 65.7134 11.2849Z" fill="black"/>
</g>
<defs>
<clipPath id="clip0_206_525">
<rect width="86" height="32" fill="white"/>
</clipPath>
</defs>
</svg>
