<svg width="36" height="36" viewBox="0 0 36 36" fill="none" xmlns="http://www.w3.org/2000/svg">
<path d="M11.2219 24.9539C11.2219 23.0484 9.85078 21.4523 8.04375 21.1078V1.50469C8.04375 1.09687 7.71328 0.773438 7.3125 0.773438C6.90469 0.773438 6.58125 1.10391 6.58125 1.50469V21.1078C4.77422 21.4523 3.40313 23.0414 3.40313 24.9539C3.40313 26.8594 4.77422 28.4555 6.58125 28.8V34.4953C6.58125 34.9031 6.91172 35.2266 7.3125 35.2266C7.72031 35.2266 8.04375 34.8961 8.04375 34.4953V28.8C9.85078 28.4555 11.2219 26.8594 11.2219 24.9539ZM7.30547 27.4008C5.95547 27.4008 4.85859 26.3039 4.85859 24.9539C4.85859 23.6039 5.95547 22.507 7.30547 22.507C8.65547 22.507 9.75234 23.6039 9.75234 24.9539C9.75234 26.3039 8.65547 27.4008 7.30547 27.4008Z" fill="#231F20"/>
<path d="M21.9164 11.6367C21.9164 9.73125 20.5453 8.13516 18.7383 7.79063V1.50469C18.7383 1.09687 18.4078 0.773438 18.007 0.773438C17.5992 0.773438 17.2758 1.10391 17.2758 1.50469V7.79063C15.4687 8.13516 14.0977 9.72422 14.0977 11.6367C14.0977 13.5422 15.4687 15.1383 17.2758 15.4828V34.4953C17.2758 34.9031 17.6063 35.2266 18.007 35.2266C18.4148 35.2266 18.7383 34.8961 18.7383 34.4953V15.4828C20.5383 15.1383 21.9164 13.5492 21.9164 11.6367V11.6367ZM18 14.0906C16.65 14.0906 15.5531 12.9938 15.5531 11.6438C15.5531 10.2938 16.65 9.19688 18 9.19688C19.35 9.19688 20.4469 10.2938 20.4469 11.6438C20.4469 12.9867 19.35 14.0906 18 14.0906V14.0906Z" fill="#231F20"/>
<path d="M32.6109 20.4398C32.6109 18.5344 31.2398 16.9383 29.4328 16.5938V1.50469C29.4328 1.09687 29.1023 0.773438 28.7016 0.773438C28.2938 0.773438 27.9703 1.10391 27.9703 1.50469V16.5938C26.1633 16.9383 24.7922 18.5273 24.7922 20.4398C24.7922 22.3523 26.1633 23.9414 27.9703 24.2859V34.4953C27.9703 34.9031 28.3008 35.2266 28.7016 35.2266C29.1094 35.2266 29.4328 34.8961 29.4328 34.4953V24.2859C31.2398 23.9414 32.6109 22.3453 32.6109 20.4398ZM28.6945 22.8867C27.3445 22.8867 26.2477 21.7898 26.2477 20.4398C26.2477 19.0898 27.3445 17.993 28.6945 17.993C30.0445 17.993 31.1414 19.0898 31.1414 20.4398C31.1414 21.7898 30.0445 22.8867 28.6945 22.8867Z" fill="#231F20"/>
</svg>
